<svg width="36" height="36" viewBox="0 0 36 36" fill="none" xmlns="http://www.w3.org/2000/svg">
<path fill-rule="evenodd" clip-rule="evenodd" d="M23.5 17.5C23.5 19.7091 21.7091 21.5 19.5 21.5C17.2909 21.5 15.5 19.7091 15.5 17.5C15.5 15.2909 17.2909 13.5 19.5 13.5C21.7091 13.5 23.5 15.2909 23.5 17.5ZM25 17.5C25 20.5376 22.5376 23 19.5 23C18.103 23 16.8277 22.4792 15.8576 21.6211L12.4939 24.5644L11.5061 23.4355L14.8792 20.4841C14.3229 19.6246 14 18.6 14 17.5C14 14.4624 16.4624 12 19.5 12C22.5376 12 25 14.4624 25 17.5Z" fill="#000"/>
</svg>
